<?xml version="1.0" standalone="no"?>
<!DOCTYPE svg PUBLIC "-//W3C//DTD SVG 20010904//EN"
 "http://www.w3.org/TR/2001/REC-SVG-20010904/DTD/svg10.dtd">
<svg xmlns:xlink="http://www.w3.org/1999/xlink" id="svg-map" version="1.0" xmlns="http://www.w3.org/2000/svg"
 width="100%" height="100%" viewBox="0 0 1920.000000 1080.000000"
 preserveAspectRatio="xMidYMid meet">


<g transform="translate(0.000000,1080.000000) scale(0.100000,-0.100000)"
fill="#553436" stroke="none">
<!-- fill="#553436" -->
<!-- Borda -->
<path  
d="M140 5385 l0 -5295 9153 2 9152 3 3 5293 2 5292 -2000 0 -2000 0 0
-75 0 -75 1925 0 1925 0 0 -5145 0 -5145 -9005 0 -9005 0 0 5145 0 5145 1765
0 1765 0 0 75 0 75 -1840 0 -1840 0 0 -5295z"/>

<!-- Borda superior -->
<path 
d="M5182 10608 l3 -73 3948 -3 3947 -2 0 75 0 75 -3950 0 -3951 0 3 -72z"/>

<a class="enterprise" idEnterprise="42" xlink:href="/enterprise/showByMap/42">
    <!-- 1º Loja lado esquerdo -->
    <path fill="#995d61"
    d="M310 9915 l0 -595 1695 0 1695 0 0 595 0 595 -1695 0 -1695 0 0 -595z"/>
</a>

<a class="enterprise" idEnterprise="43" xlink:href="/enterprise/showByMap/43">
    <!-- 1º loja superior -->
    <path fill="#995d61"
    d="M5300 9915 l0 -595 1115 0 1115 0 0 595 0 595 -1115 0 -1115 0 0 -595z"/>
</a>

<a class="enterprise" idEnterprise="44" xlink:href="/enterprise/showByMap/44">
    <!-- 2º Loja superior -->
    <path fill="#995d61"
    d="M7550 9915 l0 -595 2580 0 2580 0 139 168 140 167 1 428 0 427 -2720 0 -2720 0 0 -595z"/>
</a>

<a class="enterprise" idEnterprise="45" xlink:href="/enterprise/showByMap/45">
    <!-- 1º Loja lado direito -->
    <path fill="#995d61"
    d="M14590 10082 l0 -429 83 -74 c45 -41 126 -114 179 -162 l97 -87 463 0 463 0 368 -368 367 -367 0 -493 0 -492 825 0 825 0 0 863 c0 474 2 975 5 1112 3 138 2 402 -2 588 l-6 337 -1834 0 -1833 0 0 -428z"/>
</a>

<a class="enterprise" idEnterprise="46" xlink:href="/enterprise/showByMap/46">
    <!-- 2º loja lado esquerdo -->
    <path fill="#995d61"
    d="M305 9289 c-4 -6 -4 -647 0 -1425 l8 -1414 1398 0 1399 0 0 364 0 364 295 386 295 386 0 675 0 675 -1694 0 c-1201 0 -1697 -3 -1701 -11z"/>
</a>

<a class="enterprise" idEnterprise="47" xlink:href="/enterprise/showByMap/47">
    <!-- 1º Loja central -->
    <path fill="#995d61" 
    d="M5660 7060 l0 -830 825 0 825 0 0 830 0 830 -825 0 -825 0 0 -830z"/>
</a>

<a class="enterprise" idEnterprise="48" xlink:href="/enterprise/showByMap/48">
    <!-- 2º Loja central -->
    <path fill="#995d61"
    d="M8910 7060 l0 -830 830 0 830 0 0 830 0 830 -830 0 -830 0 0 -830z"/>
</a>

<a class="enterprise" idEnterprise="49" xlink:href="/enterprise/showByMap/49">
    <!-- 3º Loja central -->
    <path fill="#995d61"
    d="M12160 7060 l0 -830 825 0 825 0 0 830 0 830 -825 0 -825 0 0 -830z"/>
</a>

<a class="enterprise" idEnterprise="50" xlink:href="/enterprise/showByMap/50">
    <!-- 2º Loja lado direitos -->
    <path fill="#995d61"
    d="M16610 6580 l0 -1000 825 0 825 0 0 1000 0 1000 -825 0 -825 0 0 -1000z"/>
</a>

<a class="enterprise" idEnterprise="51" xlink:href="/enterprise/showByMap/51">
    <!-- 3º Loja lado esquerdo -->
    <path fill="#995d61"
    d="M310 5320 l0 -1110 1395 0 1395 0 0 1110 0 1110 -1395 0 -1395 0 0 -1110z"/>
</a>

<a class="enterprise" idEnterprise="52" xlink:href="/enterprise/showByMap/52">
    <!-- 3º Loja lado esquerdo -->
    <path fill="#995d61"
    d="M16610 4515 l0 -1035 825 0 825 0 0 1035 0 1035 -825 0 -825 0 0 -1035z"/>
</a>

<a class="enterprise" idEnterprise="53" xlink:href="/enterprise/showByMap/53">
    <!-- 4º Loja central -->
    <path fill="#995d61"
    d="M5660 3935 l0 -835 825 0 825 0 0 835 0 835 -825 0 -825 0 0 -835z"/>
</a>

<a class="enterprise" idEnterprise="54" xlink:href="/enterprise/showByMap/54">
    <!-- 5º Loja central -->
    <path fill="#995d61"
    d="M8917 4763 c-4 -3 -7 -379 -7 -835 l0 -828 830 0 830 0 0 835 0 835 -823 0 c-453 0 -827 -3 -830 -7z"/>
</a>

<a class="enterprise" idEnterprise="55" xlink:href="/enterprise/showByMap/55">
    <!-- 6º Loja central -->
    <path fill="#995d61"
    d="M12160 3935 l0 -835 825 0 825 0 0 835 0 835 -825 0 -825 0 0 -835z"/>
</a>

<a class="enterprise" idEnterprise="56" xlink:href="/enterprise/showByMap/56">
    <!-- 4º Loja lado esquerdo -->
    <path fill="#995d61"
    d="M308 2938 c-2 -689 -2 -1573 0 -1964 l3 -711 1127 -5 c620 -4 1616 -4 2215 0 l1087 5 0 674 0 673 -537 0 -538 0 -282 217 -283 216 0 1074 0 1073 -1395 0 -1394 0 -3 -1252z"/>
</a>

<a class="enterprise" idEnterprise="57" xlink:href="/enterprise/showByMap/57">
    <!-- 4º Loja lad dreito -->
    <path fill="#995d61"
    d="M16610 2973 l-1 -458 -386 -423 -386 -422 -544 0 -543 0 0 -695 0 -695 1755 0 1755 0 0 1575 0 1575 -825 0 -825 0 0 -457z"/>
</a>

<a class="enterprise" idEnterprise="58" xlink:href="/enterprise/showByMap/58">
    <!-- 3º Loja inferior -->
    <path fill="#995d61"
    d="M13529 1445 l-204 -225 -1112 0 -1113 0 0 -470 0 -470 1815 0 1815 0 0 695 0 695 -498 0 -499 0 -204 -225z"/>
</a>

<a class="enterprise" idEnterprise="59" xlink:href="/enterprise/showByMap/59">
    <!-- 1º Loja inferior -->
    <path fill="#995d61"
    d="M4760 935 l0 -665 1440 0 1440 0 0 665 0 665 -1440 0 -1440 0 0 -665z"/>
</a>

<a class="enterprise" idEnterprise="60" xlink:href="/enterprise/showByMap/60">
    <!-- 2º Loja inferior -->
    <path fill="#995d61"
    d="M7660 936 l0 -665 408 -3 c224 -2 993 -2 1710 0 l1302 3 0 470 0 469 -1008 0 -1008 0 -205 187 c-112 102 -205 190 -207 195 -2 4 -226 8 -498 8 l-494 0 0 -664z"/>
</a>

</g>
</svg>
