<?xml version="1.0" standalone="no"?>
<!DOCTYPE svg PUBLIC "-//W3C//DTD SVG 20010904//EN"
 "http://www.w3.org/TR/2001/REC-SVG-20010904/DTD/svg10.dtd">
<svg version="1.0" xmlns="http://www.w3.org/2000/svg"
 width="96.000000pt" height="96.000000pt" viewBox="0 0 96.000000 96.000000"
 preserveAspectRatio="xMidYMid meet">

<g transform="translate(0.000000,96.000000) scale(0.100000,-0.100000)"
fill="#EAD9DA" stroke="none">
<path d="M383 865 c-159 -43 -265 -159 -295 -325 -22 -116 23 -252 112 -340
88 -89 224 -134 340 -112 178 33 299 154 332 332 22 115 -23 252 -110 339 -56
56 -107 85 -189 106 -70 18 -121 18 -190 0z m250 -83 c163 -80 232 -278 155
-443 -119 -257 -485 -265 -609 -13 -147 298 157 602 454 456z"/>
<path d="M435 711 c-45 -20 -70 -60 -70 -112 0 -42 5 -53 33 -81 28 -28 39
-33 82 -33 43 0 54 5 82 33 28 28 33 39 33 82 0 42 -5 54 -31 81 -33 33 -92
46 -129 30z m87 -68 c38 -34 11 -103 -40 -103 -54 0 -81 62 -45 102 20 22 61
23 85 1z"/>
<path d="M303 414 c-22 -22 -25 -32 -20 -67 16 -125 240 -171 352 -73 50 43
59 103 22 140 -26 26 -28 26 -177 26 -149 0 -151 0 -177 -26z m315 -61 c-5
-47 -48 -68 -138 -68 -90 0 -133 21 -138 68 l-3 27 141 0 141 0 -3 -27z"/>
</g>
</svg>
