<?xml version="1.0" standalone="no"?>
<!DOCTYPE svg PUBLIC "-//W3C//DTD SVG 20010904//EN"
 "http://www.w3.org/TR/2001/REC-SVG-20010904/DTD/svg10.dtd">
<svg version="1.0" xmlns="http://www.w3.org/2000/svg"
 width="128.000000pt" height="128.000000pt" viewBox="0 0 128.000000 128.000000"
 preserveAspectRatio="xMidYMid meet">

<g transform="translate(0.000000,128.000000) scale(0.100000,-0.100000)"
fill="#553436" stroke="none">
<path d="M560 1110 c-236 -44 -394 -233 -394 -470 0 -107 29 -197 89 -279 77
-104 170 -162 305 -188 72 -15 87 -15 158 -1 108 22 185 61 257 133 72 72 111
149 133 257 14 71 14 86 -1 158 -26 133 -86 231 -187 305 -96 70 -248 106
-360 85z m201 -90 c119 -37 222 -140 259 -259 97 -308 -193 -598 -501 -501
-119 37 -222 140 -259 259 -97 310 191 598 501 501z"/>
<path d="M591 901 c-12 -8 -12 -35 0 -193 l14 -183 32 -3 c40 -4 38 -8 54 201
10 144 10 170 -2 178 -18 11 -80 11 -98 0z"/>
<path d="M608 438 c-30 -24 -31 -56 -4 -83 14 -14 30 -25 36 -25 6 0 22 11 36
25 18 19 23 31 19 48 -8 26 -32 47 -55 47 -9 0 -23 -6 -32 -12z"/>
</g>
</svg>
