<?xml version="1.0" standalone="no"?>
<!DOCTYPE svg PUBLIC "-//W3C//DTD SVG 20010904//EN"
 "http://www.w3.org/TR/2001/REC-SVG-20010904/DTD/svg10.dtd">
<svg version="1.0" xmlns="http://www.w3.org/2000/svg"
 width="1920.000000pt" height="1080.000000pt" viewBox="0 0 1920.000000 1080.000000"
 preserveAspectRatio="xMidYMid meet">

<g transform="translate(0.000000,1080.000000) scale(0.100000,-0.100000)"
fill="#000000" stroke="none">

<path fill="#553536" d="M407 10693 c-4 -5 -2 -936 3 -2069 5 -1132 10 -2137 10 -2231 l0
-173 105 0 105 0 0 415 0 415 1290 0 1290 0 0 -65 0 -65 570 0 570 0 0 65 0
65 1155 0 1155 0 0 -65 0 -65 570 0 570 0 0 65 0 65 1150 0 1150 0 0 -65 0
-65 570 0 570 0 0 65 0 65 1150 0 1150 0 0 -65 0 -65 570 0 570 0 0 130 0 130
-185 0 -185 0 0 1680 0 1680 610 0 610 0 0 75 0 75 -7453 0 c-4100 0 -7501 3
-7559 6 -65 4 -107 3 -111 -3z m13803 -1808 l0 -1705 -115 0 -115 0 0 1645 0
1645 -1590 0 -1590 0 0 -1645 0 -1645 -130 0 -130 0 0 1645 0 1645 -1590 0
-1590 0 0 -1645 0 -1645 -135 0 -135 0 0 1645 0 1645 -1585 0 -1585 0 0 -1645
0 -1645 -135 0 -135 0 0 1645 0 1645 -1535 0 -1535 0 0 60 0 60 6815 0 6815 0
0 -1705z m-9900 -1835 l0 -80 -525 0 -525 0 0 80 0 80 525 0 525 0 0 -80z
m3440 0 l0 -80 -525 0 -525 0 0 80 0 80 525 0 525 0 0 -80z m3450 0 l0 -80
-525 0 -525 0 0 80 0 80 525 0 525 0 0 -80z m3440 0 l0 -80 -525 0 -525 0 0
80 0 80 525 0 525 0 0 -80z"/>

<path fill="#EAC466" d="M17120 10615 l0 -75 760 0 760 0 0 -2175 0 -2176 73 3 72 3 3 2248 2
2247 -835 0 -835 0 0 -75z"/>

<path fill="#9C8CB9" d="M449 4633 l-36 -4 -7 -2256 c-4 -1241 -3 -2259 1 -2262 4 -3 3409 -5
7566 -3 l7557 2 0 75 0 75 -610 0 -610 0 0 1705 0 1705 185 0 185 0 0 130 0
130 -570 0 -570 0 0 -65 0 -65 -1150 0 -1150 0 0 65 0 65 -570 0 -570 0 0 -65
0 -65 -1150 0 -1150 0 0 65 0 65 -570 0 -570 0 0 -65 0 -65 -1155 0 -1155 0 0
65 0 65 -570 0 -570 0 0 -65 0 -65 -1290 0 -1290 0 -2 418 -3 417 -70 1 c-38
1 -86 -1 -106 -3z m3861 -833 l0 -80 -525 0 -525 0 0 80 0 80 525 0 525 0 0
-80z m3440 0 l0 -80 -525 0 -525 0 0 80 0 80 525 0 525 0 0 -80z m3450 0 l0
-80 -525 0 -525 0 0 80 0 80 525 0 525 0 0 -80z m3440 0 l0 -80 -525 0 -525 0
0 80 0 80 525 0 525 0 0 -80z m-10720 -1775 l0 -1645 1585 0 1585 0 0 1645 0
1645 135 0 135 0 0 -1645 0 -1645 1590 0 1590 0 0 1645 0 1645 130 0 130 0 0
-1645 0 -1645 1590 0 1590 0 0 1645 0 1645 115 0 115 0 0 -1730 0 -1730 -6815
0 -6815 0 0 85 0 85 1535 0 1535 0 0 1645 0 1645 135 0 135 0 0 -1645z"/>

<path fill="#FF0000" d="M18640 2435 l0 -2175 -760 0 -760 0 0 -75 0 -75 835 0 835 0 -2 2248
-3 2247 -72 3 -73 3 0 -2176z"/>

</g>
</svg>
